<?xml version="1.0" encoding="UTF-8"?>
<!DOCTYPE svg PUBLIC "-//W3C//DTD SVG 1.1//EN" "http://www.w3.org/Graphics/SVG/1.1/DTD/svg11.dtd">
<!-- Creator: CorelDRAW 2018 (64 Bit Versão de avaliação) -->
<svg xmlns="http://www.w3.org/2000/svg" xml:space="preserve" width="97.2222mm" height="65.3326mm" version="1.1" style="shape-rendering:geometricPrecision; text-rendering:geometricPrecision; image-rendering:optimizeQuality; fill-rule:evenodd; clip-rule:evenodd"
viewBox="0 0 9722.22 6533.26"
 xmlns:xlink="http://www.w3.org/1999/xlink">
 <defs>
  <style type="text/css">
   <![CDATA[
    .fil0 {fill:url(#id0)}
    .fil2 {fill:url(#id1);fill-rule:nonzero}
    .fil4 {fill:url(#id2);fill-rule:nonzero}
    .fil6 {fill:url(#id3);fill-rule:nonzero;fill-opacity:0.301961}
    .fil5 {fill:url(#id4);fill-rule:nonzero;fill-opacity:0.301961}
    .fil3 {fill:url(#id5);fill-rule:nonzero;fill-opacity:0.501961}
    .fil1 {fill:url(#id6);fill-rule:nonzero;fill-opacity:0.501961}
   ]]>
  </style>
  <linearGradient id="id0" gradientUnits="userSpaceOnUse" x1="1606.84" y1="129.78" x2="7411.11" y2="5724.61">
   <stop offset="0" style="stop-opacity:1; stop-color:#DCFCE7"/>
   <stop offset="1" style="stop-opacity:1; stop-color:#22C55E"/>
  </linearGradient>
  <linearGradient id="id1" gradientUnits="userSpaceOnUse" x1="-0" y1="1810.06" x2="3833.79" y2="1810.06">
   <stop offset="0" style="stop-opacity:1; stop-color:#166534"/>
   <stop offset="1" style="stop-opacity:1; stop-color:#0FBF52"/>
  </linearGradient>
  <linearGradient id="id2" gradientUnits="userSpaceOnUse" xlink:href="#id1" x1="4800.47" y1="6072.18" x2="8734.47" y2="1499.77">
  </linearGradient>
  <linearGradient id="id3" gradientUnits="userSpaceOnUse" xlink:href="#id1" x1="1422.94" y1="1320.49" x2="3822.77" y2="1320.49">
  </linearGradient>
  <linearGradient id="id4" gradientUnits="userSpaceOnUse" xlink:href="#id1" x1="4035.04" y1="3657.61" x2="8541.15" y2="3657.61">
  </linearGradient>
  <linearGradient id="id5" gradientUnits="userSpaceOnUse" xlink:href="#id0" x1="4035.04" y1="4693.11" x2="6377.66" y2="4693.11">
  </linearGradient>
  <linearGradient id="id6" gradientUnits="userSpaceOnUse" xlink:href="#id0" x1="0" y1="2216.37" x2="1426.33" y2="2216.37">
  </linearGradient>
 </defs>
 <g id="Camada_x0020_1">
  <metadata id="CorelCorpID_0Corel-Layer"/>
  <g id="_1969368053456">
   <path class="fil0" d="M9605.12 2215c-1183.34,1920.95 -2368.87,3015.04 -3272.95,3631.62 -305.01,208.09 -578.25,361.96 -808.24,474.76 -464.9,228.35 -994.96,273.25 -1488.89,129.24 -41.62,-11.5 -82.69,-25.19 -123.76,-39.98 -933.64,-336.77 -2176.11,-1071.09 -3090.04,-2147.65 -167.56,-197.13 -315.41,-413.43 -437.52,-642.87 -310.49,-581.54 -458.34,-1249.05 -346.63,-1907.26 54.76,-324.72 195.49,-635.21 397.55,-900.24 159.35,-209.73 355.94,-390.98 578.26,-528.97 10.95,-7.12 21.9,-13.69 33.4,-20.26 245.87,-146.75 520.76,-239.85 808.24,-259.01 20.81,-2.19 41.62,-2.74 62.43,-3.29 16.98,-1.09 33.95,-1.09 50.92,-1.09l10.96 0c22.45,0 44.9,0.54 67.35,1.64l-619.87 1106.13 -121.02 215.76c-103.49,62.42 -187.27,136.89 -251.89,218.48l-0.55 0c-567.3,712.42 282.56,2014.59 1940.65,1511.9 986.21,-298.98 1675.63,69 2055.1,481.33 154.42,167.02 257.37,341.7 308.29,481.88 1.1,1.1 2.19,2.74 2.74,3.83 8.76,-358.67 59.14,-679.01 140.73,-963.75 521.86,-1831.15 2326.72,-2221.58 2713.86,-2252.79 447.38,-36.69 962.67,-96.38 1327.36,376.19 365.25,472.57 63.52,1034.4 63.52,1034.4z"/>
   <path class="fil1" d="M1426.33 1107.77l-121.02 215.76c-103.49,62.42 -187.27,136.89 -251.89,218.48l-0.55 0c0,0 -1283.55,244.23 -669.15,2078.11 -310.49,-581.54 -458.34,-1249.05 -346.63,-1907.26 54.76,-324.72 195.49,-635.21 397.55,-900.24l412.34 32.31 369.62 82.14 209.73 180.7z"/>
   <path class="fil2" d="M3767.27 1960.92c-137.45,354.84 -495.02,623.71 -877.79,641.23 -161.54,7.66 -315.4,-31.22 -453.94,-102.4 -1.1,-1.1 -2.19,-1.65 -2.74,-1.65 -186.73,-96.92 -345.53,-252.43 -457.79,-432.59 -121.56,-194.39 -180.7,-414.53 -358.12,-573.33 -90.35,-81.59 -197.13,-139.63 -311.58,-168.65 -83.23,-21.36 -170.3,-26.84 -258.46,-14.24 -1094.64,156.06 -1007.02,1575.41 -663.13,2310.83 -310.49,-581.54 -458.34,-1249.05 -346.63,-1907.26 97.47,-580.45 472.57,-1116.54 975.81,-1429.21 10.95,-7.12 21.9,-13.69 33.4,-20.26 125.4,-72.28 257.92,-133.07 395.91,-177.97 94.18,-30.67 190.56,-53.11 288.03,-67.35 41.07,-6.03 82.69,-10.41 124.3,-13.69 20.81,-1.1 41.62,-2.74 62.43,-3.29 16.98,-0.55 33.95,-1.09 50.92,-1.09l10.96 0c149.49,0 297.89,19.16 441.9,55.3 328,82.14 634.65,252.44 883.8,486.26 378.39,355.39 664.23,898.6 462.72,1419.36z"/>
   <path class="fil3" d="M6332.17 5846.62c-305.01,208.09 -578.25,361.96 -808.24,474.76 -464.9,228.35 -994.96,273.25 -1488.89,129.24 1526.13,75.02 1013.58,-2915.38 1013.58,-2915.38 154.42,167.02 257.37,341.7 308.29,481.88 1.1,1.1 2.19,2.74 2.74,3.83 8.76,-358.67 59.14,-679.01 140.73,-963.75l192.76 -204.25c0,0 574.97,821.38 657.1,1058.49 55.86,162.08 14.24,1184.43 -18.07,1935.18z"/>
   <path class="fil4" d="M9605.12 2215c-357.03,580.45 -714.6,1084.78 -1064.51,1523.4l-0.55 0.55c-1199.77,1505.32 -2310.84,2236.35 -3016.13,2582.43 -464.9,228.35 -994.96,273.25 -1488.89,129.24 1360.21,215.2 1285.19,-1455.5 1321.87,-2433.5 1.1,1.1 2.19,2.74 2.74,3.83 66.26,-2664.57 2407.21,-3180.4 2854.59,-3216.54 106.23,-8.76 216.3,-18.62 326.91,-22.45 356.49,-12.6 722.28,38.33 1000.45,398.64 365.25,472.57 63.52,1034.4 63.52,1034.4z"/>
   <path class="fil5" d="M7808.48 4298.04c265.03,-156.07 505.97,-351.56 731.58,-559.09 -1199.77,1505.32 -2310.84,2236.35 -3016.13,2582.43 -464.9,228.35 -994.96,273.25 -1488.89,129.24 1360.21,215.2 1285.19,-1455.5 1321.87,-2433.5 1.1,1.1 2.19,2.74 2.74,3.83 66.26,-2664.57 2407.21,-3180.4 2854.59,-3216.54 106.23,-8.76 216.3,-18.62 326.91,-22.45 -102.4,18.61 -197.68,42.71 -242.03,50.92 -429.31,79.4 -847.12,242.58 -1200.32,501.6 -655,479.34 -1087.27,1339.6 -1081.13,2152.89 2.49,328.61 100.91,647.57 365.3,860.94 428.38,345.71 991.52,205.38 1425.51,-50.27z"/>
   <path class="fil6" d="M3759.48 1957.76c-35.92,93.6 -87.97,184.61 -158.26,271.1 -223.77,275.36 -605.58,421.22 -954.5,339.97 -402.22,-93.67 -592.64,-500.53 -724.85,-852.42 -66.35,-176.61 -110.56,-374.38 -199.42,-541.24 -109.58,-205.78 -319.42,-371.75 -297.98,-627.85 36.47,-435.58 630.37,-542.09 972.5,-482.26 429.06,75.03 808.84,338.25 1081.28,671.27 285.65,349.16 438.99,810.34 281.23,1221.43z"/>
  </g>
 </g>
</svg>
